<svg width="101" height="79" viewBox="0 0 101 79" fill="none" xmlns="http://www.w3.org/2000/svg">
<g id="Group">
<path id="Vector" d="M100.061 27.4528C98.3593 27.9315 96.6571 28.4102 94.8486 28.9422C97.0827 31.7613 97.2422 35.0592 96.9231 38.4634C96.6039 41.8145 95.8061 45.006 92.8273 47.3464C93.4656 47.5592 94.0507 47.7188 94.5827 47.9315C95.5401 48.2507 95.8061 49.2081 95.0614 49.8996C94.689 50.2719 94.2103 50.5911 93.7316 50.6975C91.1252 51.4954 90.1678 53.5166 89.9018 55.9102C89.7422 57.6656 89.8486 59.4741 89.8486 61.2826C91.4444 61.8677 93.0401 62.3996 94.6359 62.9847C95.1678 63.1975 95.6465 63.4102 96.1252 63.7294C96.4444 63.9954 96.6571 64.3677 96.9763 64.6868C96.6571 64.8996 96.338 65.2188 95.9656 65.2719C92.8805 66.0698 89.7954 66.7613 86.7103 67.506C72.0295 71.0698 57.3486 74.6337 42.6677 78.1443C42.2422 78.2507 41.7635 78.2507 41.338 78.0911C29.4231 74.2613 17.5082 70.3783 5.64645 66.4954C3.78475 65.9103 2.56134 64.5273 1.81666 62.8251C-0.0450443 58.889 -0.470577 54.74 0.752828 50.5379C1.12517 49.3145 1.92304 48.1975 2.61453 46.9741C2.24219 46.8677 1.71028 46.7613 1.17836 46.5485C0.80602 46.389 0.486871 46.1762 0.11453 45.9634C0.380488 45.6443 0.593254 45.1656 0.965595 45.006C2.08262 44.4209 3.25283 43.9953 4.42304 43.5166C4.95496 43.3039 5.48687 43.1443 6.01879 43.0379C7.08262 42.8783 7.29539 42.24 7.34858 41.2826C7.40177 39.3145 7.45496 37.3464 6.81666 35.3783C6.28475 33.7826 5.3273 32.6124 3.67836 32.0805C3.09326 31.9209 2.56134 31.5485 2.13581 31.123C1.39113 30.4315 1.65708 29.5273 2.61453 29.2081C3.89113 28.7826 5.16772 28.4102 6.44432 28.0379C3.04006 23.6762 2.56134 18.7826 3.67836 13.6762C4.47623 10.1124 6.76347 8.30385 10.4337 7.77194C18.3592 6.70811 26.2316 5.59109 34.1571 4.47407C42.7741 3.25066 51.4443 2.08045 60.1146 0.910235C61.2316 0.750661 62.3486 0.537895 63.4656 0.431512C63.7848 0.37832 64.1571 0.431512 64.5295 0.537895C75.4869 3.83577 86.4444 7.13364 97.4018 10.4315C97.8273 10.5379 98.3593 11.0166 98.4125 11.389C98.4656 11.7613 98.0933 12.3464 97.7742 12.6656C97.455 12.9847 96.9763 13.2507 96.4976 13.357C94.5827 13.9422 93.5188 15.3251 93.2529 17.1336C92.9337 19.1549 92.9337 21.2826 92.9337 23.3039C92.9337 23.5698 93.3593 23.9953 93.6784 24.1017C95.221 24.6868 96.8167 25.1656 98.3593 25.8039C98.9976 26.0698 99.5295 26.4953 100.061 26.8677C100.061 27.0273 100.061 27.24 100.061 27.4528ZM55.1146 54.3677C56.072 54.1017 56.8167 53.889 57.6146 53.6762C68.3061 50.6975 78.9444 47.6656 89.6358 44.74C91.338 44.2613 92.4018 43.4102 92.9869 41.8145C93.9444 39.1017 94.1039 36.3358 93.5188 33.5698C92.9869 31.0166 91.6039 30.3251 89.1571 31.1762C84.6358 32.6656 80.1146 34.1549 75.5933 35.5911C68.9444 37.7719 62.2954 39.9528 55.6465 42.0805C55.2209 42.24 54.7954 42.24 54.7954 42.9315C54.9018 46.7613 55.0082 50.4847 55.1146 54.3677ZM44.955 35.6443C45.0082 35.3783 45.0082 35.2188 45.0614 35.006C45.1677 31.5485 45.2741 28.0911 45.4337 24.6868C45.4869 23.8358 45.1677 23.5698 44.4231 23.357C33.1465 19.6868 21.8699 16.0166 10.5933 12.3464C8.78475 11.7613 7.50815 12.2932 6.92304 14.1017C5.85921 17.3996 6.12517 20.6443 7.50815 23.7826C7.93368 24.7932 8.73156 25.5379 9.84858 25.8039C17.5082 27.9315 25.1677 30.0592 32.7741 32.1868C36.8167 33.3571 40.8592 34.4741 44.955 35.6443ZM42.0294 73.0911C42.1358 69.3677 42.2422 65.7507 42.4018 62.1337C42.455 61.3358 42.2422 61.0166 41.4975 60.7507C30.2209 57.1337 18.9975 53.4634 7.77411 49.74C5.69964 49.0485 4.26347 50.1124 3.78474 51.7613C2.93368 54.9528 3.14645 58.0911 4.42304 61.0698C4.84858 62.1337 5.64645 62.8783 6.81666 63.1975C14.2635 65.2719 21.7635 67.3464 29.2103 69.4209C33.4124 70.6975 37.6677 71.8677 42.0294 73.0911ZM91.9763 14.6868C91.5508 14.74 91.2316 14.7932 90.9125 14.8464C86.7103 15.6975 82.5082 16.6017 78.3061 17.4528C68.3061 19.4741 58.3592 21.5485 48.3592 23.5698C47.6146 23.7294 47.2954 23.9953 47.2954 24.8464C47.2422 28.2507 47.1358 31.6549 47.0295 35.1124C47.0295 35.2719 47.0826 35.4847 47.0826 35.6975C61.7635 32.0273 76.3912 28.4102 91.0188 24.7932C90.6997 21.2826 90.4869 17.9847 91.9763 14.6868ZM8.14645 33.3571C9.63581 36.7613 9.47624 40.0592 9.1039 43.4634C23.7316 47.0805 38.3592 50.7507 53.0933 54.4209C52.9869 50.4315 52.8805 46.4954 52.7209 42.5592C37.9337 39.4741 23.1465 36.4422 8.14645 33.3571ZM43.9975 73.0911C44.2635 73.0379 44.3167 73.0379 44.4231 73.0379C50.3273 71.6017 56.1784 70.1124 62.0826 68.623C70.4869 66.5485 78.8912 64.4209 87.2954 62.3996C87.8805 62.24 88.0933 61.9741 87.9869 61.389C87.6146 58.2507 87.6146 55.1656 88.9444 52.1337C88.572 52.1868 88.3061 52.1868 88.0933 52.24C79.4763 53.9954 70.8593 55.8571 62.189 57.5592C59.1571 58.1443 56.3912 59.5805 53.0933 59.5805C50.2209 59.5805 47.3486 60.6443 44.4231 61.2826C44.2635 65.2188 44.1039 69.1017 43.9975 73.0911Z" fill="#555555"/>
</g>
</svg>
