<svg width="101" height="81" viewBox="0 0 101 81" fill="none" xmlns="http://www.w3.org/2000/svg">
<g id="Group">
<path id="Vector" d="M49.0258 58.1461C47.3835 58.3286 45.9236 57.7811 44.5246 56.9295C30.1693 48.5962 15.8749 40.2629 1.51968 31.9904C-0.487621 30.8347 -0.426794 28.1583 1.51968 27.0634C15.9357 18.7909 30.291 10.3967 44.7071 2.06339C47.6876 0.360225 50.729 0.481879 53.6487 2.18504C66.1791 9.48431 78.7703 16.7836 91.3008 24.0828C92.9431 25.0561 94.5854 26.151 96.2886 26.9417C98.6 28.0366 98.4175 30.8955 96.2886 32.112C85.6438 38.1948 75.0599 44.3991 64.4759 50.5427C60.8263 52.6716 57.1766 54.8006 53.527 56.9295C52.1888 57.7203 50.729 58.2677 49.0258 58.1461Z" fill="#555555"/>
<path id="Vector_2" d="M16.059 46.5282C16.9105 47.0148 17.5188 47.3798 18.1879 47.7447C25.913 52.246 33.638 56.7472 41.3631 61.2484C46.4726 64.2289 51.5213 64.2289 56.6916 61.2484C64.7816 56.5039 72.8716 51.8202 80.9617 47.1365C81.2658 46.954 81.5091 46.8323 81.8741 46.6499C81.9349 46.8323 81.9957 46.8932 81.9957 47.0148C81.9957 51.4552 82.0565 55.8956 81.9957 60.2752C81.9349 63.134 80.6575 65.5063 78.2244 66.9662C71.7767 70.7983 65.3291 74.6912 58.6989 78.1584C51.8254 81.7472 44.8303 81.3214 38.1393 77.4893C32.239 74.1438 26.4604 70.7375 20.5602 67.3311C17.5796 65.628 16.059 63.0732 16.1198 59.6669C16.059 55.409 16.059 51.0902 16.059 46.5282Z" fill="#555555"/>
<path id="Vector_3" d="M97.5674 37.465C97.5674 42.6961 97.5674 47.6839 97.5674 52.6718C97.5674 56.3822 97.5674 60.0319 97.5674 63.7424C97.5674 64.229 97.8716 64.8372 98.2365 65.2022C100.548 67.5136 100.609 71.1025 98.419 73.4139C96.1684 75.6645 92.3971 75.6645 90.2073 73.3531C87.9567 71.0416 88.0784 67.392 90.4506 65.1414C90.9981 64.6548 91.1197 64.1681 91.1197 63.499C91.1197 56.3822 91.1197 49.2655 91.1197 42.1487C91.1197 41.4187 91.3022 40.9321 92.0321 40.5672C93.7961 39.7156 95.5601 38.6207 97.5674 37.465Z" fill="#555555"/>
</g>
</svg>
